<svg width="15" height="15" viewBox="0 0 16 16" fill="none" xmlns="http://www.w3.org/2000/svg"><title>Collapse</title><path fill="#DADCE2" fill-rule="evenodd" clip-rule="evenodd" d="M8.00049 3C8.00049 2.44772 8.4482 2 9.00049 2C9.55277 2 10.0005 2.44772 10.0005 3V6H13.0005C13.5528 6 14.0005 6.44772 14.0005 7C14.0005 7.55229 13.5528 8 13.0005 8L9.00049 8C8.45036 8 8.00399 7.55578 8.00051 7.00647L8.00049 7V3ZM8 13C8 13.5523 7.55228 14 7 14C6.44772 14 6 13.5523 6 13L6 10L3 10C2.44772 10 2 9.55228 2 9C2 8.44771 2.44772 8 3 8L7 8C7.55229 8 8 8.44772 8 9L8 13Z"></path></svg>