<svg width="32" height="32" viewBox="0 0 32 32" fill="none" xmlns="http://www.w3.org/2000/svg"><title>Share</title><path fill="#ffffff" fill-rule="evenodd" clip-rule="evenodd" d="M22 7.5C20.8954 7.5 20 8.39543 20 9.5C20 10.6046 20.8954 11.5 22 11.5C23.1046 11.5 24 10.6046 24 9.5C24 8.39543 23.1046 7.5 22 7.5ZM18 9.5C18 7.29086 19.7909 5.5 22 5.5C24.2091 5.5 26 7.29086 26 9.5C26 11.7091 24.2091 13.5 22 13.5C20.802 13.5 19.7271 12.9734 18.994 12.139L13.8494 14.9091C13.9475 15.2559 14 15.6218 14 16C14 16.3782 13.9475 16.7441 13.8494 17.0909L18.994 19.861C19.7271 19.0266 20.802 18.5 22 18.5C24.2091 18.5 26 20.2909 26 22.5C26 24.7091 24.2091 26.5 22 26.5C19.7909 26.5 18 24.7091 18 22.5C18 22.2071 18.0315 21.9215 18.0913 21.6465L12.8387 18.8181C12.114 19.548 11.1098 20 10 20C7.79086 20 6 18.2091 6 16C6 13.7909 7.79086 12 10 12C11.1098 12 12.114 12.452 12.8387 13.1819L18.0913 10.3535C18.0315 10.0785 18 9.79294 18 9.5ZM10 14C8.89543 14 8 14.8954 8 16C8 17.1046 8.89543 18 10 18C11.1046 18 12 17.1046 12 16C12 14.8954 11.1046 14 10 14ZM20 22.5C20 21.3954 20.8954 20.5 22 20.5C23.1046 20.5 24 21.3954 24 22.5C24 23.6046 23.1046 24.5 22 24.5C20.8954 24.5 20 23.6046 20 22.5Z"></path></svg>